<?xml version="1.0" standalone="no"?>
<!DOCTYPE svg PUBLIC "-//W3C//DTD SVG 20010904//EN"
 "http://www.w3.org/TR/2001/REC-SVG-20010904/DTD/svg10.dtd">
<svg version="1.0" xmlns="http://www.w3.org/2000/svg"
 width="225.000000pt" height="225.000000pt" viewBox="0 0 225.000000 225.000000"
 preserveAspectRatio="xMidYMid meet">

<g transform="translate(0.000000,225.000000) scale(0.100000,-0.100000)"
fill="#000000" stroke="none">
<path d="M502 1530 c-153 -31 -262 -168 -262 -329 0 -70 25 -165 41 -155 5 3
6 -2 3 -10 -7 -19 79 -107 132 -134 64 -33 145 -42 360 -42 l202 0 63 -65 c34
-35 66 -62 72 -58 6 3 7 1 3 -5 -3 -6 -3 -13 2 -16 4 -2 41 29 82 70 l75 74
210 0 c139 0 229 5 266 14 160 37 259 163 259 326 0 136 -66 242 -188 302
l-67 33 -605 2 c-333 1 -624 -3 -648 -7z m956 -37 c3 -10 -50 -13 -242 -13
-213 0 -246 2 -246 15 0 13 31 15 242 13 182 -2 242 -6 246 -15z m-757 -140
c11 -11 21 -32 22 -49 3 -42 -37 -47 -68 -8 -25 31 -55 28 -55 -6 0 -14 15
-27 48 -44 27 -13 54 -32 62 -41 12 -14 34 -112 22 -100 -3 2 -13 -6 -23 -20
-22 -27 -66 -39 -108 -30 -38 8 -81 51 -81 81 0 21 5 24 34 24 25 0 35 -5 39
-20 7 -27 35 -36 54 -17 23 23 10 43 -45 71 -55 28 -67 40 -76 78 -8 34 8 70
42 91 35 23 107 17 133 -10z m218 -26 c9 -27 20 -45 24 -40 5 4 5 0 2 -8 -3
-9 8 -59 25 -111 16 -52 30 -98 30 -102 0 -3 -17 -6 -39 -6 -35 0 -39 3 -44
30 -6 27 -10 30 -46 30 -36 0 -40 -3 -46 -30 -6 -27 -10 -30 -47 -30 -31 0
-39 3 -35 14 3 8 27 80 52 161 l46 146 31 -3 c28 -3 33 -9 47 -51z m178 -77
l1 -125 54 -5 c50 -5 53 -7 54 -32 l1 -28 -93 0 -94 0 0 153 c0 85 3 157 7
161 4 4 21 6 38 4 l30 -3 2 -125z m312 29 c18 -56 41 -129 51 -163 l17 -61
-39 3 c-34 4 -40 8 -45 33 -5 26 -9 29 -45 29 -34 0 -40 -4 -49 -30 -9 -25
-16 -30 -45 -30 -19 0 -34 3 -34 7 0 4 21 76 47 160 l47 153 31 0 c30 0 31 -2
64 -101z m161 36 l0 -65 40 0 40 0 0 65 0 65 35 0 34 0 3 -160 3 -160 -37 0
-38 0 0 65 0 65 -40 0 -40 0 0 -65 0 -65 -35 0 -34 0 -3 160 -3 160 38 0 37 0
0 -65z m-1260 -171 c0 -45 47 -130 91 -165 45 -35 114 -59 171 -59 27 0 38 -4
35 -12 -7 -20 -115 -11 -166 14 -81 39 -143 121 -157 207 -8 48 2 84 16 61 6
-8 10 -29 10 -46z m1610 -122 c0 -17 -74 -82 -118 -103 -40 -20 -67 -24 -189
-27 -127 -4 -143 -3 -143 12 0 14 16 16 123 16 151 0 207 15 262 68 38 37 65
51 65 34z"/>
<path d="M868 1245 c-20 -66 -20 -65 1 -65 22 0 25 15 12 60 -7 23 -8 23 -13
5z"/>
<path d="M1333 1226 c-10 -44 -9 -46 13 -46 24 0 24 -3 0 84 -1 5 -7 -12 -13
-38z"/>
</g>
</svg>
